# xmcd
#
# Track frame offsets:
# 150
# 24001
# 47668
# 65391
# 84209
# 101137
# 118194
# 145472
# 164975
# 173356
# 193393
#
# Disc length: 2731 seconds
#
# Revision: 1
# Processed by: cddbd v1.5PL3 Copyright (c) Steve Scherf et al.
# Submitted via: Easy CD Ripper 1.45
#
DISCID=950aa90b
DTITLE=The Dapper Dan Men - Part two - Live!
DYEAR=2001
DGENRE=Country
TTITLE0=It was sad (when the great ship
TTITLE1=Tonight, Irene
TTITLE2=Lord, I feel like going home
TTITLE3=I love you still
TTITLE4=It's allright now
TTITLE5=God called
TTITLE6=Jesse James
TTITLE7=Let's change partners
TTITLE8=The great pretenders
TTITLE9=The great stroy...
TTITLE10=On the road again
EXTD=Recorded on 17/03/2001 In Hasselt (Het Gouwhuis)
EXTT0=
EXTT1=
EXTT2=
EXTT3=
EXTT4=
EXTT5=
EXTT6=
EXTT7=
EXTT8=
EXTT9=
EXTT10=
PLAYORDER=
